# Blender v2.91.0 OBJ File: ''
# www.blender.org
mtllib handle.mtl
o faucet
v 0.242470 2.387222 0.246726
v 0.000000 2.387223 0.325708
v 0.357496 2.387222 -0.000412
v -0.242470 2.387222 0.246726
v -0.357496 2.387222 -0.000412
v 0.000000 2.387223 -0.350434
v 0.242470 2.387222 -0.271452
v -0.242470 2.387222 -0.271452
v 0.197259 2.429450 -1.804371
v -0.197259 2.429450 -1.804372
v -0.197259 2.732866 -1.804371
v 0.197259 2.732866 -1.804371
v -0.265976 2.398194 -0.642123
v -0.642122 2.398194 -0.265976
v -0.642122 2.764122 -0.265976
v -0.265976 2.764122 -0.642123
v -1.804371 2.429451 -0.192358
v -1.804372 2.429451 0.192358
v -1.804372 2.732866 0.192358
v -1.804371 2.732866 -0.192358
v -0.642123 2.398194 0.265976
v -0.265976 2.398194 0.642122
v -0.265976 2.764122 0.642122
v -0.642123 2.764122 0.265976
v -0.197259 2.429451 1.804371
v 0.197258 2.429451 1.804371
v 0.197258 2.732866 1.804371
v -0.197259 2.732866 1.804371
v 0.265976 2.398194 0.642123
v 0.642122 2.398194 0.265976
v 0.642122 2.764122 0.265976
v 0.265976 2.764122 0.642123
v 1.804371 2.429451 0.192359
v 1.804371 2.429451 -0.192358
v 1.804371 2.732866 -0.192358
v 1.804371 2.732866 0.192359
v 0.642123 2.398194 -0.265976
v 0.265976 2.398194 -0.642122
v 0.265976 2.764122 -0.642121
v 0.642123 2.764122 -0.265976
v 0.233342 2.872478 -0.563337
v -0.233342 2.872478 -0.563338
v 0.000000 2.872478 0.000000
v -0.563337 2.872478 -0.233342
v -0.563338 2.872478 0.233342
v -0.233342 2.872478 0.563338
v 0.233342 2.872478 0.563338
v 0.563338 2.872478 0.233342
v 0.563338 2.872478 -0.233342
v -0.154635 2.462231 -0.642122
v 0.154636 2.462231 -0.642122
v -0.154635 2.700085 -0.642122
v 0.154636 2.700085 -0.642122
v -0.642122 2.462232 0.150793
v -0.642122 2.462232 -0.150794
v -0.642122 2.700085 0.150793
v -0.642122 2.700085 -0.150794
v 0.154635 2.462232 0.642122
v -0.154636 2.462232 0.642122
v 0.154635 2.700085 0.642122
v -0.154636 2.700085 0.642122
v 0.642122 2.462232 -0.150793
v 0.642122 2.462232 0.150794
v 0.642122 2.700085 -0.150793
v 0.642122 2.700085 0.150794
v -0.257294 2.383278 -1.484899
v 0.257295 2.383278 -1.484899
v -0.257294 2.779038 -1.484899
v 0.257295 2.779038 -1.484899
v -1.484899 2.383279 0.250902
v -1.484899 2.383279 -0.250902
v -1.484899 2.779038 0.250902
v -1.484899 2.779038 -0.250902
v 0.257294 2.383279 1.484899
v -0.257295 2.383279 1.484899
v 0.257294 2.779038 1.484900
v -0.257295 2.779038 1.484900
v 1.484899 2.383279 -0.250902
v 1.484899 2.383279 0.250902
v 1.484899 2.779038 -0.250902
v 1.484899 2.779038 0.250902
v -0.257294 2.383278 -1.691390
v 0.257295 2.383278 -1.691389
v -0.257294 2.779038 -1.691390
v 0.257295 2.779038 -1.691388
v -1.691390 2.383279 0.250902
v -1.691389 2.383279 -0.250902
v -1.691390 2.779038 0.250902
v -1.691389 2.779038 -0.250902
v 0.257294 2.383279 1.691390
v -0.257295 2.383279 1.691389
v 0.257294 2.779038 1.691391
v -0.257295 2.779038 1.691389
v 1.691390 2.383279 -0.250902
v 1.691390 2.383279 0.250902
v 1.691390 2.779038 -0.250902
v 1.691390 2.779038 0.250902
v 0.000000 2.298036 0.325708
v 0.357496 2.303895 -0.000412
v -0.240717 2.314327 -0.581143
v 0.576672 2.308178 -0.238865
v 0.234510 2.293717 0.566158
v -0.242470 2.299455 0.246726
v -0.357496 2.303895 -0.000412
v 0.000000 2.310182 -0.350434
v 0.240717 2.314327 -0.581142
v -0.576671 2.308178 -0.238865
v -0.234510 2.293717 0.566157
v 0.570466 2.299642 0.236295
v 0.242470 2.308764 -0.271452
v -0.242470 2.308764 -0.271452
v 0.242470 2.299455 0.246726
v -0.570466 2.299642 0.236295
vt 0.000000 0.907009
vt 1.000000 0.908490
vt 1.000000 1.000000
vt 0.000000 1.000000
vt 0.000000 0.908490
vt 1.000000 0.913119
vt 1.000000 1.000000
vt 0.000000 1.000000
vt 0.000000 0.913119
vt 1.000000 0.908490
vt 1.000000 1.000000
vt 0.000000 1.000000
vt 0.000000 0.908490
vt 1.000000 0.907009
vt 1.000000 1.000000
vt 0.000000 1.000000
vt 0.000000 0.918195
vt 1.000000 0.919674
vt 1.000000 1.000000
vt 0.000000 1.000000
vt 0.000000 0.913119
vt 1.000000 0.918195
vt 1.000000 1.000000
vt 0.000000 1.000000
vt 0.000000 0.919674
vt 1.000000 0.918195
vt 1.000000 1.000000
vt 0.000000 1.000000
vt 0.000000 0.918195
vt 1.000000 0.913119
vt 1.000000 1.000000
vt 0.000000 1.000000
vt 0.375000 0.312500
vt 0.406250 0.312500
vt 0.406250 0.688440
vt 0.375000 0.688440
vt 0.406250 0.312500
vt 0.437500 0.312500
vt 0.437500 0.688440
vt 0.406250 0.688440
vt 0.437500 0.312500
vt 0.468750 0.312500
vt 0.468750 0.688440
vt 0.437500 0.688440
vt 0.468750 0.312500
vt 0.500000 0.312500
vt 0.500000 0.688440
vt 0.468750 0.688440
vt 0.500000 0.312500
vt 0.531250 0.312500
vt 0.531250 0.688440
vt 0.500000 0.688440
vt 0.531250 0.312500
vt 0.562500 0.312500
vt 0.562500 0.688440
vt 0.531250 0.688440
vt 0.562500 0.312500
vt 0.593750 0.312500
vt 0.593750 0.688440
vt 0.562500 0.688440
vt 0.593750 0.312500
vt 0.625000 0.312500
vt 0.625000 0.688440
vt 0.593750 0.688440
vt 0.610485 0.954235
vt 0.500000 1.000000
vt 0.500000 0.837500
vt 0.389515 0.954235
vt 0.343750 0.843750
vt 0.389515 0.733265
vt 0.500000 0.687500
vt 0.610485 0.733265
vt 0.656250 0.843750
vt 0.375000 0.312500
vt 0.406250 0.312500
vt 0.375000 0.312500
vt 0.406250 0.688440
vt 0.375000 0.688440
vt 0.375000 0.688440
vt 0.437500 0.312500
vt 0.437500 0.688440
vt 0.468750 0.312500
vt 0.468750 0.688440
vt 0.500000 0.312500
vt 0.500000 0.688440
vt 0.531250 0.312500
vt 0.531250 0.688440
vt 0.562500 0.312500
vt 0.562500 0.688440
vt 0.593750 0.312500
vt 0.593750 0.688440
vt 0.625000 0.312500
vt 0.625000 0.688440
vt 0.406250 0.312500
vt 0.375000 0.312500
vt 0.406250 0.688440
vt 0.375000 0.688440
vt 0.468750 0.312500
vt 0.437500 0.312500
vt 0.468750 0.688440
vt 0.437500 0.688440
vt 0.531250 0.312500
vt 0.500000 0.312500
vt 0.531250 0.688440
vt 0.500000 0.688440
vt 0.593750 0.312500
vt 0.562500 0.312500
vt 0.593750 0.688440
vt 0.562500 0.688440
vt 0.406250 0.312500
vt 0.375000 0.312500
vt 0.406250 0.688440
vt 0.375000 0.688440
vt 0.468750 0.312500
vt 0.437500 0.312500
vt 0.468750 0.688440
vt 0.437500 0.688440
vt 0.531250 0.312500
vt 0.500000 0.312500
vt 0.531250 0.688440
vt 0.500000 0.688440
vt 0.593750 0.312500
vt 0.562500 0.312500
vt 0.593750 0.688440
vt 0.562500 0.688440
vt 0.406250 0.312500
vt 0.375000 0.312500
vt 0.406250 0.688440
vt 0.375000 0.688440
vt 0.468750 0.312500
vt 0.437500 0.312500
vt 0.468750 0.688440
vt 0.437500 0.688440
vt 0.531250 0.312500
vt 0.500000 0.312500
vt 0.531250 0.688440
vt 0.500000 0.688440
vt 0.593750 0.312500
vt 0.562500 0.312500
vt 0.593750 0.688440
vt 0.562500 0.688440
vn 0.3097 -0.0000 0.9508
vn 0.9066 -0.0000 0.4220
vn -0.9066 -0.0000 0.4220
vn -0.3097 -0.0000 0.9508
vn 0.3097 0.0000 -0.9508
vn 0.9205 0.0000 -0.3907
vn -0.3097 0.0000 -0.9508
vn -0.9205 0.0000 -0.3907
vn 0.0000 0.0000 -1.0000
vn -0.7071 0.0000 -0.7071
vn -1.0000 0.0000 -0.0000
vn -0.7071 -0.0000 0.7071
vn 0.0000 -0.0000 1.0000
vn 0.7071 -0.0000 0.7071
vn 1.0000 0.0000 0.0000
vn 0.7071 0.0000 -0.7071
vn 0.0000 1.0000 0.0000
vn 0.0000 -0.5881 -0.8088
vn 0.0000 0.5881 -0.8088
vn -0.5719 -0.5881 -0.5719
vn -0.5719 0.5881 -0.5719
vn -0.8088 -0.5881 -0.0000
vn -0.8088 0.5881 -0.0000
vn -0.5719 -0.5881 0.5719
vn -0.5719 0.5881 0.5719
vn -0.0000 -0.5881 0.8088
vn -0.0000 0.5881 0.8088
vn 0.5719 -0.5881 0.5719
vn 0.5719 0.5881 0.5719
vn 0.8088 -0.5881 0.0000
vn 0.8088 0.5881 0.0000
vn 0.5719 -0.5881 -0.5719
vn 0.5719 0.5881 -0.5719
vn 0.0000 -0.9956 0.0933
vn -0.9927 -0.0000 0.1209
vn 0.0000 0.9956 0.0933
vn 0.9927 -0.0000 0.1209
vn 0.0933 -0.9956 0.0000
vn 0.1180 -0.0000 0.9930
vn 0.0933 0.9956 0.0000
vn 0.1180 0.0000 -0.9930
vn 0.0000 -0.9956 -0.0933
vn 0.9927 0.0000 -0.1209
vn 0.0000 0.9956 -0.0933
vn -0.9927 0.0000 -0.1209
vn -0.0933 -0.9956 0.0000
vn -0.1180 0.0000 -0.9930
vn -0.0933 0.9956 0.0000
vn -0.1180 -0.0000 0.9930
vn 0.0000 -1.0000 0.0000
vn 0.0000 -0.9257 -0.3783
vn -0.8831 0.0000 -0.4692
vn 0.0000 0.9257 -0.3783
vn 0.8831 0.0000 -0.4692
vn -0.3783 -0.9257 -0.0000
vn -0.4601 -0.0000 0.8879
vn -0.3783 0.9257 -0.0000
vn -0.4601 0.0000 -0.8879
vn -0.0000 -0.9257 0.3783
vn 0.8831 -0.0000 0.4692
vn -0.0000 0.9257 0.3783
vn -0.8831 -0.0000 0.4692
vn 0.3783 -0.9257 0.0000
vn 0.4601 -0.0000 -0.8879
vn 0.3783 0.9257 0.0000
vn 0.4601 -0.0000 0.8879
usemtl blinn1SG
s off
f 98/1/1 112/2/1 1/3/1 2/4/1
f 112/5/2 99/6/2 3/7/2 1/8/2
f 104/9/3 103/10/3 4/11/3 5/12/3
f 103/13/4 98/14/4 2/15/4 4/16/4
f 110/17/5 105/18/5 6/19/5 7/20/5
f 99/21/6 110/22/6 7/23/6 3/24/6
f 105/25/7 111/26/7 8/27/7 6/28/7
f 111/29/8 104/30/8 5/31/8 8/32/8
f 9/33/9 10/34/9 11/35/9 12/36/9
f 13/37/10 14/38/10 15/39/10 16/40/10
f 17/41/11 18/42/11 19/43/11 20/44/11
f 21/45/12 22/46/12 23/47/12 24/48/12
f 25/49/13 26/50/13 27/51/13 28/52/13
f 29/53/14 30/54/14 31/55/14 32/56/14
f 33/57/15 34/58/15 35/59/15 36/60/15
f 37/61/16 38/62/16 39/63/16 40/64/16
f 41/65/17 42/66/17 43/67/17
f 42/66/17 44/68/17 43/67/17
f 44/68/17 45/69/17 43/67/17
f 45/69/17 46/70/17 43/67/17
f 46/70/17 47/71/17 43/67/17
f 47/71/17 48/72/17 43/67/17
f 48/72/17 49/73/17 43/67/17
f 49/73/17 41/65/17 43/67/17
f 106/74/18 100/75/18 13/37/18 38/76/18
f 42/77/19 41/78/19 39/79/19 16/40/19
f 100/75/20 107/80/20 14/38/20 13/37/20
f 44/81/21 42/77/21 16/40/21 15/39/21
f 107/80/22 113/82/22 21/45/22 14/38/22
f 45/83/23 44/81/23 15/39/23 24/48/23
f 113/82/24 108/84/24 22/46/24 21/45/24
f 46/85/25 45/83/25 24/48/25 23/47/25
f 108/84/26 102/86/26 29/53/26 22/46/26
f 47/87/27 46/85/27 23/47/27 32/56/27
f 102/86/28 109/88/28 30/54/28 29/53/28
f 48/89/29 47/87/29 32/56/29 31/55/29
f 109/88/30 101/90/30 37/61/30 30/54/30
f 49/91/31 48/89/31 31/55/31 40/64/31
f 101/90/32 106/92/32 38/62/32 37/61/32
f 41/93/33 49/91/33 40/64/33 39/63/33
f 38/76/9 13/37/9 50/94/9 51/95/9
f 13/37/9 16/40/9 52/96/9 50/94/9
f 16/40/9 39/79/9 53/97/9 52/96/9
f 39/79/9 38/76/9 51/95/9 53/97/9
f 14/38/11 21/45/11 54/98/11 55/99/11
f 21/45/11 24/48/11 56/100/11 54/98/11
f 24/48/11 15/39/11 57/101/11 56/100/11
f 15/39/11 14/38/11 55/99/11 57/101/11
f 22/46/13 29/53/13 58/102/13 59/103/13
f 29/53/13 32/56/13 60/104/13 58/102/13
f 32/56/13 23/47/13 61/105/13 60/104/13
f 23/47/13 22/46/13 59/103/13 61/105/13
f 30/54/15 37/61/15 62/106/15 63/107/15
f 37/61/15 40/64/15 64/108/15 62/106/15
f 40/64/15 31/55/15 65/109/15 64/108/15
f 31/55/15 30/54/15 63/107/15 65/109/15
f 51/95/34 50/94/34 66/110/34 67/111/34
f 50/94/35 52/96/35 68/112/35 66/110/35
f 52/96/36 53/97/36 69/113/36 68/112/36
f 53/97/37 51/95/37 67/111/37 69/113/37
f 55/99/38 54/98/38 70/114/38 71/115/38
f 54/98/39 56/100/39 72/116/39 70/114/39
f 56/100/40 57/101/40 73/117/40 72/116/40
f 57/101/41 55/99/41 71/115/41 73/117/41
f 59/103/42 58/102/42 74/118/42 75/119/42
f 58/102/43 60/104/43 76/120/43 74/118/43
f 60/104/44 61/105/44 77/121/44 76/120/44
f 61/105/45 59/103/45 75/119/45 77/121/45
f 63/107/46 62/106/46 78/122/46 79/123/46
f 62/106/47 64/108/47 80/124/47 78/122/47
f 64/108/48 65/109/48 81/125/48 80/124/48
f 65/109/49 63/107/49 79/123/49 81/125/49
f 67/111/50 66/110/50 82/126/50 83/127/50
f 66/110/11 68/112/11 84/128/11 82/126/11
f 68/112/17 69/113/17 85/129/17 84/128/17
f 69/113/15 67/111/15 83/127/15 85/129/15
f 71/115/50 70/114/50 86/130/50 87/131/50
f 70/114/13 72/116/13 88/132/13 86/130/13
f 72/116/17 73/117/17 89/133/17 88/132/17
f 73/117/9 71/115/9 87/131/9 89/133/9
f 75/119/50 74/118/50 90/134/50 91/135/50
f 74/118/15 76/120/15 92/136/15 90/134/15
f 76/120/17 77/121/17 93/137/17 92/136/17
f 77/121/11 75/119/11 91/135/11 93/137/11
f 79/123/50 78/122/50 94/138/50 95/139/50
f 78/122/9 80/124/9 96/140/9 94/138/9
f 80/124/17 81/125/17 97/141/17 96/140/17
f 81/125/13 79/123/13 95/139/13 97/141/13
f 83/127/51 82/126/51 10/34/51 9/33/51
f 82/126/52 84/128/52 11/35/52 10/34/52
f 84/128/53 85/129/53 12/36/53 11/35/53
f 85/129/54 83/127/54 9/33/54 12/36/54
f 87/131/55 86/130/55 18/42/55 17/41/55
f 86/130/56 88/132/56 19/43/56 18/42/56
f 88/132/57 89/133/57 20/44/57 19/43/57
f 89/133/58 87/131/58 17/41/58 20/44/58
f 91/135/59 90/134/59 26/50/59 25/49/59
f 90/134/60 92/136/60 27/51/60 26/50/60
f 92/136/61 93/137/61 28/52/61 27/51/61
f 93/137/62 91/135/62 25/49/62 28/52/62
f 95/139/63 94/138/63 34/58/63 33/57/63
f 94/138/64 96/140/64 35/59/64 34/58/64
f 96/140/65 97/141/65 36/60/65 35/59/65
f 97/141/66 95/139/66 33/57/66 36/60/66
